# xmcd
#
# Track frame offsets: 
#        150
#        19703
#        36245
#        57022
#        70970
#        89685
#        104903
#        123274
#        136497
#        152077
#        172556
#        189886
#        207168
#        217794
#        235796
#        256201
#        273477
#        293725
#        311168
#        327170
#
# Disc length: 4627 seconds
#
# Revision: 0
# Processed by: cddbd v1.5.2PL0 Copyright (c) Steve Scherf et al.
# Submitted via: ExactAudioCopy v1.1
#
DISCID=1b121114
DTITLE=Various Artist - 50 Jaar Nederpop - CD 3 - 80's
DYEAR=2008
DGENRE=Pop
TTITLE0=De Dijk - Nergens Goed Voor
TTITLE1=Doe Maar - Pa
TTITLE2=Golden Earring - Twilight Zone
TTITLE3=Frank Boeijen Groep - Zwart Wit
TTITLE4=Margriet Eshuijs Band - Black Pearl
TTITLE5=Drukwerk - Je Loog Tegen Mij
TTITLE6=Het Goede Doel - Vriendschap
TTITLE7=Vitesse - Rosalyn
TTITLE8=Klein Orkest - Over De Muur
TTITLE9=Urban Dance Squad - Deeper Shade Of Soul
TTITLE10=Spargo - You And Me
TTITLE11=Time Bandits - I'm Specialized In You
TTITLE12=Toontje Lager - Stiekem Gedanst
TTITLE13=Loïs Lane - It's The First Time
TTITLE14=Mai Tai - Am I Losing You Forever
TTITLE15=Diesel - Sausolito Summernight
TTITLE16=Piet Veerman - Sailin' Home
TTITLE17=Renée - High Time He Went
TTITLE18=Hans De Booy - Annabel
TTITLE19=M.C. Miker 'G' and Deejay Sven - Holiday Rap
EXTD=
EXTT0=
EXTT1=
EXTT2=
EXTT3=
EXTT4=
EXTT5=
EXTT6=
EXTT7=
EXTT8=
EXTT9=
EXTT10=
EXTT11=
EXTT12=
EXTT13=
EXTT14=
EXTT15=
EXTT16=
EXTT17=
EXTT18=
EXTT19=
PLAYORDER=
